<svg xmlns="http://www.w3.org/2000/svg" viewBox="0 0 613 613"><defs><style>.cls-1{fill:#f7f7f7;}.cls-2,.cls-4{fill:#dbdbdb;}.cls-3{fill:#d4ebff;}.cls-4{stroke:#000;stroke-miterlimit:10;stroke-width:8px;}</style></defs><g id="Layer_2" data-name="Layer 2"><g id="Layer_1-2" data-name="Layer 1"><circle class="cls-1" cx="306.5" cy="306.5" r="306.5"/><circle class="cls-2" cx="306.5" cy="306.5" r="279.62"/><path class="cls-3" d="M307.23,26.88A279.52,279.52,0,0,0,64.5,166.33l242,140.17.73-279.62"/><line class="cls-3" x1="307.23" y1="26.88" x2="306.5" y2="306.5"/><circle class="cls-4" cx="306.5" cy="306.5" r="73.87"/><circle cx="306.5" cy="306.5" r="39.89"/><polygon points="306.57 279.54 292.25 279.51 299.62 199.69 306.98 119.88 313.94 199.73 320.89 279.58 306.57 279.54"/><polygon points="292.85 299.31 285.55 311.63 230.58 270.7 175.61 229.77 237.89 258.38 300.16 287 292.85 299.31"/><path d="M429.26,75.75h-.11l-6.65,3.58-1-3.93,8.35-4.47h4.41v38.2h-5Z"/><path d="M513.82,196.73v-3.18l4-3.93c9.76-9.29,14.17-14.23,14.23-20,0-3.88-1.88-7.46-7.58-7.46a13,13,0,0,0-8.12,3.23l-1.64-3.64a16.72,16.72,0,0,1,10.81-3.88c8.23,0,11.7,5.64,11.7,11.11,0,7-5.11,12.75-13.17,20.51l-3.05,2.82v.12h17.16v4.29Z"/><path d="M550.07,319.14a17.3,17.3,0,0,0,8.46,2.41c6.64,0,8.7-4.24,8.64-7.41-.06-5.35-4.88-7.64-9.87-7.64h-2.88v-3.88h2.88c3.76,0,8.52-1.94,8.52-6.46,0-3.06-1.94-5.76-6.7-5.76a14,14,0,0,0-7.64,2.52l-1.35-3.76a18.11,18.11,0,0,1,10-2.94c7.52,0,10.93,4.47,10.93,9.11,0,3.94-2.35,7.29-7,9v.11c4.7.94,8.52,4.47,8.52,9.82,0,6.11-4.76,11.46-13.93,11.46a19.35,19.35,0,0,1-9.93-2.59Z"/><path d="M524.57,446.49v-10.4H506.82v-3.41l17-24.39h5.59V432h5.35v4.06h-5.35v10.4Zm0-14.46V419.28q0-3,.17-6h-.17c-1.18,2.24-2.12,3.88-3.18,5.64l-9.34,13V432Z"/><path d="M444,507.07H429.41l-1.47,9.82a20.19,20.19,0,0,1,3.12-.24,16.15,16.15,0,0,1,8.23,2.06,10.89,10.89,0,0,1,5.46,9.82c0,7.46-5.93,13.05-14.22,13.05a18.76,18.76,0,0,1-9.52-2.35l1.29-3.94a17.12,17.12,0,0,0,8.17,2.11c4.88,0,9-3.17,9-8.28-.06-4.94-3.35-8.47-11-8.47a40.71,40.71,0,0,0-5.29.41l2.47-18.34H444Z"/><path d="M315.85,541.49a18.91,18.91,0,0,0-3.88.23,15.53,15.53,0,0,0-13.29,13.58h.18a11.39,11.39,0,0,1,9.23-4.41c6.76,0,11.52,4.88,11.52,12.34,0,7-4.76,13.46-12.7,13.46-8.17,0-13.52-6.34-13.52-16.28,0-7.52,2.71-13.46,6.47-17.22a20.81,20.81,0,0,1,12.22-5.64,24.24,24.24,0,0,1,3.77-.29Zm-1.47,22c0-5.47-3.12-8.76-7.88-8.76a8.51,8.51,0,0,0-7.41,4.7,4.47,4.47,0,0,0-.58,2.3c.11,6.28,3,10.93,8.4,10.93C311.38,572.7,314.38,569,314.38,563.53Z"/><path d="M194.91,499.29v3.41l-16.63,34.8h-5.35l16.57-33.8v-.12H170.81v-4.29Z"/><path d="M77.49,441.44c0-4.82,2.88-8.23,7.58-10.23L85,431c-4.23-2-6.05-5.29-6.05-8.58,0-6.05,5.11-10.17,11.81-10.17,7.41,0,11.11,4.65,11.11,9.41,0,3.23-1.59,6.7-6.29,8.93v.18c4.76,1.88,7.7,5.23,7.7,9.87,0,6.64-5.7,11.11-13,11.11C82.31,451.78,77.49,447,77.49,441.44Zm20.57-.24c0-4.64-3.23-6.88-8.41-8.34-4.46,1.29-6.87,4.23-6.87,7.87-.18,3.88,2.76,7.29,7.64,7.29C95.06,448,98.06,445.14,98.06,441.2ZM83.83,422.1c0,3.82,2.88,5.88,7.29,7,3.29-1.11,5.82-3.47,5.82-6.93,0-3.06-1.82-6.23-6.46-6.23C86.19,416,83.83,418.81,83.83,422.1Z"/><path d="M43.05,322.76a21.93,21.93,0,0,0,4.17-.18,14.41,14.41,0,0,0,8-3.7,16.82,16.82,0,0,0,5.06-10.17h-.18a11.21,11.21,0,0,1-9,4.11c-6.88,0-11.29-5.17-11.29-11.69,0-7.23,5.24-13.58,13-13.58s12.64,6.35,12.64,16.1c0,8.41-2.82,14.29-6.58,17.93a19.11,19.11,0,0,1-11.11,5.11,23.61,23.61,0,0,1-4.76.3Zm1.88-22c0,4.76,2.88,8.11,7.35,8.11a8.55,8.55,0,0,0,7.52-4,3.45,3.45,0,0,0,.47-1.88c0-6.53-2.41-11.52-7.82-11.52C48,291.49,44.93,295.37,44.93,300.77Z"/><path d="M82.64,171.38h-.12L75.88,175l-1-3.94,8.35-4.47h4.41v38.21h-5Z"/><path d="M127,185.26c0,13-4.82,20.16-13.29,20.16-7.46,0-12.52-7-12.63-19.64,0-12.81,5.52-19.86,13.28-19.86C122.37,165.92,127,173.09,127,185.26Zm-20.75.58c0,9.94,3.05,15.58,7.76,15.58,5.29,0,7.81-6.17,7.81-15.93,0-9.4-2.41-15.58-7.75-15.58C109.5,169.91,106.21,175.44,106.21,185.84Z"/><path d="M172.17,83.37h-.12L165.41,87l-1-3.94,8.35-4.46h4.4v38.2h-5Z"/><path d="M202.32,83.37h-.12L195.56,87l-1-3.94,8.35-4.46h4.41v38.2h-5Z"/><path d="M288.66,43.19h-.12l-6.64,3.59-1-3.94,8.35-4.47h4.41V76.58h-5Z"/><path d="M307.59,76.58V73.41l4.05-3.94c9.76-9.29,14.17-14.23,14.23-20,0-3.88-1.88-7.46-7.59-7.46a13,13,0,0,0-8.11,3.23l-1.64-3.64a16.7,16.7,0,0,1,10.81-3.88c8.23,0,11.7,5.64,11.7,11.11,0,7-5.11,12.75-13.17,20.51l-3.05,2.82v.12H332v4.29Z"/></g></g></svg>