<svg xmlns="http://www.w3.org/2000/svg" viewBox="0 0 108.44 191.63"><defs><style>.cls-1{fill:#525252;}</style></defs><g id="Layer_2" data-name="Layer 2"><g id="Layer_1-2" data-name="Layer 1"><path class="cls-1" d="M35.39,61.41A41.74,41.74,0,0,1,52.8,65.58l2.78,1.27V69L58,68l.56.26.11-.56,4-1.81a44.94,44.94,0,0,1,18.44-4.38c8.49,0,16.41,3.05,24.1,9.29-14.25,16-21.45,33.26-20.87,50.12.49,14.29,6.67,27.6,17.92,38.69-.62,1.52-1.23,3.05-1.83,4.55A173.5,173.5,0,0,1,93,180.92C89.42,187.53,84.16,191,77.73,191a21.4,21.4,0,0,1-6.2-1,45.7,45.7,0,0,0-13.46-2.13,41.88,41.88,0,0,0-12.75,2A22.39,22.39,0,0,1,38.7,191c-6.86,0-12.31-3.92-16.19-11.64-2.51-5-4.62-10.47-6.67-15.75l-1.48-3.81c11-9.1,17.17-22.81,17.46-39.07a71.47,71.47,0,0,0-6.36-30.4A63,63,0,0,0,11.6,70.45c7.75-6.07,15.58-9,23.79-9M30.18,14.26c-1.06,4-.26,5.28,2.94,5.87C49.5,23.2,59.38,39.09,54.89,61a46.49,46.49,0,0,0-19.5-4.62c-11.13,0-21.57,4.8-31.49,14.07,25.51,19,33.48,67.59,4.4,87.66,3.19,7.79,5.95,15.93,9.75,23.48C22.76,191,30,196,38.7,196a27.35,27.35,0,0,0,8.12-1.32,37.18,37.18,0,0,1,11.25-1.79,40.8,40.8,0,0,1,12,1.91A26.09,26.09,0,0,0,77.73,196c8.19,0,15.18-4.42,19.64-12.76,4.27-8,7.3-16.76,10.81-25-26.66-23.87-25-57.94,4.16-87.88-9.68-9.23-20-13.94-31.26-13.94a49.64,49.64,0,0,0-20.5,4.83c0-5.24.08-9.72,0-14.19-.3-14.27-8.93-26.74-21.69-31.1-2.82-1-5.86-1.19-8.69-1.74Z" transform="translate(-3.9 -4.39)"/><path class="cls-1" d="M102.05,13.07a161.39,161.39,0,0,1-3,16.2A10.79,10.79,0,0,1,94.66,35c-7,3.9-14.17,7.37-21.82,11l-.85.41c.77-5.84,1.54-11.39,2.69-16.81a7.89,7.89,0,0,1,3-4.27c7.5-4.07,15.23-7.82,23.42-11.79l1-.47m6.4-8.68C96.57,10.23,85.74,15.25,75.27,20.94a12.57,12.57,0,0,0-5.48,7.62C68,37,67.12,45.67,65.78,55c11.09-5.45,21.45-10.13,31.33-15.67a15.62,15.62,0,0,0,6.76-8.8c2.11-8.2,3-16.72,4.58-26.12Z" transform="translate(-3.9 -4.39)"/></g></g></svg>