<svg xmlns="http://www.w3.org/2000/svg" viewBox="0 0 148.75 178.5"><defs><style>.cls-1{fill:#525252;}</style></defs><g id="Layer_2" data-name="Layer 2"><g id="Layer_1-2" data-name="Layer 1"><path class="cls-1" d="M.42,38.33C-2,20.35,6.31,10.77,24.31,10.71c7.93,0,15.86,0,24.33,0L49.26,0H99.41L100,10.71h10.65c6.13,0,12.26-.05,18.39,0,12.79.11,19.67,7,19.68,19.67v7.94ZM6,33.17H142.67c1.87-11.19-2.77-16.91-13.57-17-11.38,0-22.76,0-34.41,0-.21-3.88-.39-7.26-.58-10.78H54.58L54,16.22c-11.25,0-22-.17-32.74.05C10.74,16.49,4.51,23.41,6,33.17Z"/><path class="cls-1" d="M136,48.12c3.84-1.32,5.08-.28,5.07,3.18-.07,38,0,75.94-.1,113.92,0,8-5.52,13.23-13.63,13.24q-53,.07-106,0c-8.33,0-13.68-5.28-13.7-13.7-.08-37.64,0-75.28-.07-112.93,0-3.22.51-5.3,5.06-3.7v6.09q0,53.22,0,106.46c0,10.17,2.33,12.45,12.63,12.46h98.51c9.82,0,12.17-2.4,12.18-12.41V48.12Z"/><path class="cls-1" d="M61.25,105.72,37.38,81.83c7.83-7.85,15.76-15.78,24-24L65.87,62,47.65,77.49l.88,1.61h11.7c8.29,0,16.58,0,24.88,0,14.53.06,22.88,9.29,21.63,24.31h-4.65c-.14-1.26-.32-2.39-.39-3.53-.53-8.93-5.56-15.11-14.31-15.51-12.87-.58-25.79-.15-39.07-.15l17.51,16.65Z"/><path class="cls-1" d="M101.46,131.46,83.19,115l4-4.48,23.6,23.57L86.91,158.36c-.53-.73-1.41-1.92-3-4.1L101.3,138.8l-1-1.68c-1.72-.08-3.43-.24-5.14-.24-11,0-21.89.1-32.83,0-13.55-.18-22.11-10.52-20.14-24.42H46.3a4.29,4.29,0,0,1,.48,1c2.12,15.1,5.94,18.39,21.36,18.4,9.12,0,18.24,0,27.35,0C97.07,131.82,98.64,131.64,101.46,131.46Z"/></g></g></svg>