<svg xmlns="http://www.w3.org/2000/svg" viewBox="0 0 159.54 180.12"><defs><style>.cls-1{fill:#525252;}</style></defs><g id="Layer_2" data-name="Layer 2"><g id="Layer_1-2" data-name="Layer 1"><path class="cls-1" d="M122.64,96.25c8.24,9.54,8.11,21.44-.29,30.36-3.53,3.74-7.08,7.46-10.61,11.19-2.22,2.34-3,5-.61,7.49,2.62,2.73,5.31,1.81,7.78-.62,5.92-5.8,12-11.44,17.76-17.41a9.1,9.1,0,0,0,2.06-5.69c.21-9.78,0-19.58.16-29.36.25-11.44,8.45-18.6,20.63-17.65v4.66c0,18.59.1,37.18-.13,55.76a13,13,0,0,1-2.88,7.37c-5.19,6.46-10.65,12.72-16.28,18.79-4.83,5.2-9.75,10.16-7.1,18.64l-5.66.28c-.73-6.93-.89-12.73,4.6-18,7-6.78,13.07-14.54,19.39-22,1.2-1.41,2.43-3.39,2.44-5.12.17-17.58.09-35.17.06-52.76a7.2,7.2,0,0,0-.49-1.64c-5.16,1.12-8.61,4.17-8.91,9.27-.59,10.08-.91,20.22-.56,30.31.21,5.84-1.49,10-5.85,13.76-5.27,4.54-10.06,9.64-15.09,14.45s-11.15,5.36-15.51,1.2c-4.63-4.42-4.41-10.38.67-15.79,3.63-3.87,7.38-7.62,11-11.51,4.79-5.17,5.46-10.74,1.88-17.1-7.15,7-13.83,14.43-21.37,20.8-7.2,6.08-10.15,12.93-9.31,22.38.82,9.22.29,18.57,0,27.86,0,1.36-1.85,2.67-2.84,4-.79-1.32-2.25-2.63-2.27-4q-.25-19.9,0-39.83A7.65,7.65,0,0,1,87,131.46c11.38-11.61,22.93-23.06,34.44-34.53A5.24,5.24,0,0,1,122.64,96.25Z"/><path class="cls-1" d="M.71,74.76c11.07-1.55,20.14,5.61,20.5,16.15.34,10.11,0,20.25.32,30.36a11.36,11.36,0,0,0,2.89,6.81c5.33,5.67,11.12,10.91,16.67,16.39,2.4,2.36,5,3.69,7.79,1,3-2.85,1.59-5.67-.85-8.21-3.23-3.35-6.44-6.7-9.6-10.1-8.91-9.55-9.31-20.14-1-31.1a25.26,25.26,0,0,1,2.56,2c10.81,10.77,21.66,21.51,32.31,32.45a9.66,9.66,0,0,1,2.52,6c.22,13.1.19,26.22,0,39.33,0,1.42-1.61,2.82-2.47,4.24-.92-1.41-2.61-2.8-2.64-4.21-.21-12.12-.07-24.23-.18-36.35,0-1.87-.22-4.3-1.36-5.51-9.31-9.88-18.85-19.54-28.44-29.39-4.24,5.87-3.67,12.2,1,17.32,3.81,4.15,7.86,8.09,11.69,12.23,4.55,4.92,4.63,10.78.35,15.08s-10.29,4.08-15.13-.48c-6.39-6-12.75-12.12-18.84-18.44a9.76,9.76,0,0,1-2.4-6.05c-.25-9.95,0-19.91-.16-29.87-.12-8.29-2.65-11.83-9.76-13.94-.12,1.48-.35,2.87-.35,4.26,0,16.1-.12,32.2.1,48.3a12.25,12.25,0,0,0,2.6,7c5.87,7.19,11.73,14.46,18.35,20.93,5.5,5.38,6.86,11.27,5.36,18.72H27.2c3.12-9.48-3.68-14.41-8.64-20.22l-.33-.37C12.46,152.53,4.36,146.74,1.56,139-1.38,131,.74,121,.72,111.9.68,99.49.71,87.09.71,74.76Z"/><path class="cls-1" d="M96.25,89.91l-3.78-3.24c11.94-15.75,15.27-32.93,8.28-51.48A47.93,47.93,0,0,0,76.13,8.28c-6.63,8.51-13,16.43-19.1,24.63-6.84,9.26-10.56,19.49-8,31.22C52,77.31,64.43,88.31,77.34,88.82V54.45h5.52c0,4,.08,7.91,0,11.83-.26,10.59,0,21.25-1.15,31.75C81.16,103.14,78,108,75.64,114l-4.15-3.88,6.18-14.86c-3.24-.84-5.47-1.32-7.65-2C46.13,85.91,35.76,58.94,48.53,36.36,52,30.22,56.8,24.8,61.2,19.22S70.39,8.63,69.78,0C86.6,5.51,98.18,15.7,105,31.22,113.51,50.86,110,74.5,96.25,89.91Z"/></g></g></svg>