<svg xmlns="http://www.w3.org/2000/svg" viewBox="0 0 432 84.47"><defs><style>.cls-1{fill:#2a99c9;}</style></defs><title>logo - blue</title><g id="Layer_2" data-name="Layer 2"><g id="Header"><g id="Layer_2-2" data-name="Layer 2"><g id="Layer_1-2" data-name="Layer 1-2"><path class="cls-1" d="M80.42,59.55a29.37,29.37,0,0,1,49.56-27l-6,6a20.95,20.95,0,0,0-35.14,19.9"/><polygon class="cls-1" points="134.95 43.73 116.94 43.75 135.02 25.52 134.95 43.73"/><path class="cls-1" d="M136.35,47.51a29.37,29.37,0,0,1-49.56,27l6-6a20.94,20.94,0,0,0,35.06-19.84"/><polygon class="cls-1" points="81.82 63.34 99.81 63.32 81.75 81.55 81.82 63.34"/><path class="cls-1" d="M49.69,54.63q0,13.46-6.19,21.62A19.76,19.76,0,0,1,27,84.42,20.47,20.47,0,0,1,9.71,76.55l-.53,6.79H0V0H10V31.1A20.36,20.36,0,0,1,26.8,23.55a19.91,19.91,0,0,1,16.8,8.08q6.1,8.07,6.11,22.14Zm-10-1.14q0-10.26-4-15.84a13.1,13.1,0,0,0-11.39-5.51A14.71,14.71,0,0,0,10,41.32V66.69A15.16,15.16,0,0,0,24.4,75.87a13,13,0,0,0,11.23-5.51q4-5.64,4-16.87Z"/><path class="cls-1" d="M62.41,9.07A6,6,0,0,1,63.9,4.94a5.59,5.59,0,0,1,4.42-1.69,5.66,5.66,0,0,1,4.44,1.69,5.94,5.94,0,0,1,1.53,4.13,5.69,5.69,0,0,1-1.53,4.07,5.78,5.78,0,0,1-4.46,1.55,5.72,5.72,0,0,1-4.42-1.64A5.78,5.78,0,0,1,62.41,9.07ZM73.24,83.34h-10V24.6h10Z"/><path class="cls-1" d="M154.36,31.74a21.34,21.34,0,0,1,17.36-8.19q18.61,0,18.78,21V83.34h-10V44.5q0-6.36-2.9-9.38a11.62,11.62,0,0,0-8.86-3,14.44,14.44,0,0,0-8.58,2.61,17.65,17.65,0,0,0-5.74,6.82V83.34H144.32V0h10Z"/><path class="cls-1" d="M205.59,9.07a6,6,0,0,1,1.49-4.13,5.59,5.59,0,0,1,4.42-1.69,5.66,5.66,0,0,1,4.44,1.69,5.94,5.94,0,0,1,1.53,4.13,5.69,5.69,0,0,1-1.53,4.07,5.81,5.81,0,0,1-4.44,1.64,5.69,5.69,0,0,1-4.42-1.64A5.76,5.76,0,0,1,205.59,9.07Zm10.83,74.27h-10V24.6h10Z"/><path class="cls-1" d="M246.1,10.41V24.62h11v7.76h-11V68.84a8.14,8.14,0,0,0,1.47,5.3,6.18,6.18,0,0,0,5,1.84,24.12,24.12,0,0,0,4.77-.65v8a29.88,29.88,0,0,1-7.69,1.1,12.49,12.49,0,0,1-10.15-4.08,17.42,17.42,0,0,1-3.42-11.56V32.4H225.4V24.63h10.68V10.41Z"/><path class="cls-1" d="M293.15,84.44a25.73,25.73,0,0,1-19.42-7.84q-7.56-7.86-7.56-21V53.78a35.2,35.2,0,0,1,3.34-15.6,26.12,26.12,0,0,1,9.32-10.74,23.51,23.51,0,0,1,13-3.89q11.44,0,17.78,7.55T316,52.68V56.9H276.26a20.9,20.9,0,0,0,5.07,14,15.92,15.92,0,0,0,12.37,5.3,17.42,17.42,0,0,0,9-2.16,22.61,22.61,0,0,0,6.46-5.75l6.13,4.78Q307.91,84.44,293.15,84.44Zm-1.28-52.65a13.39,13.39,0,0,0-10.21,4.43,21.49,21.49,0,0,0-5.1,12.39h29.37v-.75A19.1,19.1,0,0,0,301.8,36,12.64,12.64,0,0,0,291.87,31.79Z"/><path class="cls-1" d="M351.2,76.23A14.48,14.48,0,0,0,360.58,73,11.47,11.47,0,0,0,365,64.85h9.45a18.19,18.19,0,0,1-3.47,9.6,22.82,22.82,0,0,1-8.55,7.35,24.71,24.71,0,0,1-11.25,2.64,24.2,24.2,0,0,1-19.08-8q-7.08-8-7.08-21.9V52.85a35.34,35.34,0,0,1,3.14-15.26,24,24,0,0,1,9-10.37,25.77,25.77,0,0,1,13.91-3.67,23.56,23.56,0,0,1,16.43,5.82,21.18,21.18,0,0,1,7,15.35H365a13.87,13.87,0,0,0-4.32-9.37,13.46,13.46,0,0,0-9.58-3.67,14,14,0,0,0-11.86,5.51q-4.2,5.51-4.2,15.93V55q0,10.15,4.18,15.62A14.13,14.13,0,0,0,351.2,76.23Z"/><path class="cls-1" d="M395.86,31.74a21.33,21.33,0,0,1,17.36-8.19q18.61,0,18.78,21V83.34H422V44.5q0-6.36-2.9-9.38a11.64,11.64,0,0,0-8.87-3,14.43,14.43,0,0,0-8.57,2.61,17.59,17.59,0,0,0-5.75,6.82V83.34h-10V0h10Z"/></g></g></g></g></svg>